<?xml version="1.0" encoding="UTF-8"?><svg xmlns="http://www.w3.org/2000/svg" xmlns:xlink="http://www.w3.org/1999/xlink" viewBox="0 0 48 48" version="1.1"><g id="surface1" fill="none" stroke-width="2" stroke-linecap="butt" stroke-linejoin="miter" stroke-opacity="1" stroke-miterlimit="10"><path d="M2 35h8" stroke="#FF3D00"/><path d="M2 32h8" stroke="#FF3D00"/><path d="M2 29h8" stroke="#FF3D00"/><path d="M2 26h8" stroke="#FF9E80"/><path d="M2 23h8" stroke="#FF9E80"/><path d="M29 26h8" stroke="#E6EE9C"/><path d="M29 23h8" stroke="#E6EE9C"/><path d="M20 26h8" stroke="#F8BBD0"/><path d="M20 23h8" stroke="#F8BBD0"/><path d="M20 20h8" stroke="#F8BBD0"/><path d="M20 17h8" stroke="#F8BBD0"/><path d="M11 35h8" stroke="#FFEB3B"/><path d="M11 32h8" stroke="#FFEB3B"/><path d="M11 29h8" stroke="#FFEB3B"/><path d="M20 35h8" stroke="#FF4081"/><path d="M20 32h8" stroke="#FF4081"/><path d="M20 29h8" stroke="#FF4081"/><path d="M29 35h8" stroke="#CDDC39"/><path d="M29 32h8" stroke="#CDDC39"/><path d="M29 29h8" stroke="#CDDC39"/><path d="M38 35h8" stroke="#4FC3F7"/><path d="M38 32h8" stroke="#4FC3F7"/><path d="M38 29h8" stroke="#4FC3F7"/><path d="M38 26h8" stroke="#B3E5FC"/><path d="M38 23h8" stroke="#B3E5FC"/><path d="M38 20h8" stroke="#B3E5FC"/><path d="M38 17h8" stroke="#B3E5FC"/><path d="M38 14h8" stroke="#B3E5FC"/></g><metadata><rdf:RDF xmlns:rdf="http://www.w3.org/1999/02/22-rdf-syntax-ns#" xmlns:rdfs="http://www.w3.org/2000/01/rdf-schema#" xmlns:dc="http://purl.org/dc/elements/1.1/"><rdf:Description about="https://iconscout.com/legal#licenses" dc:title="deezer" dc:description="deezer" dc:publisher="Iconscout" dc:date="2017-12-15" dc:format="image/svg+xml" dc:language="en"><dc:creator><rdf:Bag><rdf:li>Icons8</rdf:li></rdf:Bag></dc:creator></rdf:Description></rdf:RDF></metadata></svg>